<svg xmlns="http://www.w3.org/2000/svg" viewBox="0 0 24 24"><title>Send-Mail 2</title><path d="M24,1.35s0,0,0-.05a.44.44,0,0,0-.12-.18h0s0,0,0,0h0A.52.52,0,0,0,23.55,1h0a.42.42,0,0,0-.24.05s0,0,0,0l-19,11a.5.5,0,0,0-.24.48.51.51,0,0,0,.34.43l5.76,1.92L12,20.66s0,0,0,0a.51.51,0,0,0,.15.21h0a.45.45,0,0,0,.29.1h.07a.47.47,0,0,0,.22-.09.34.34,0,0,0,.06-.06.1.1,0,0,0,.05,0l2.22-3h0l.62-.82L20.31,19a.43.43,0,0,0,.19,0h0a.46.46,0,0,0,.23-.06.49.49,0,0,0,.26-.35l3-17s0,0,0,0A.5.5,0,0,0,24,1.35ZM19.59,6.13,13.1,15.21a.46.46,0,0,0-.08.19h0l-.63,3.16-1.3-3.92ZM13.43,18.44l.44-2.22.92.4Z" style="fill:#fff"/><path d="M.86,18.15a.5.5,0,0,0-.71,0,.5.5,0,0,0,0,.71c.24.24.49.48.74.7a.47.47,0,0,0,.33.14.5.5,0,0,0,.37-.17.48.48,0,0,0,0-.7Z" style="fill:#fff"/><path d="M8.27,22H8a5.87,5.87,0,0,1-1.24-.13.5.5,0,0,0-.59.39.49.49,0,0,0,.39.59A7.12,7.12,0,0,0,8,23H8.3a.5.5,0,0,0,.49-.52A.47.47,0,0,0,8.27,22Z" style="fill:#fff"/><path d="M4.68,21.09a11.74,11.74,0,0,1-1.3-.8.51.51,0,0,0-.7.13.5.5,0,0,0,.13.7A12.7,12.7,0,0,0,4.22,22a.5.5,0,0,0,.23.05.48.48,0,0,0,.45-.27A.49.49,0,0,0,4.68,21.09Z" style="fill:#fff"/><path d="M11.25,21.07a6.68,6.68,0,0,1-.84.43.5.5,0,0,0,.2,1,.79.79,0,0,0,.2,0,7.78,7.78,0,0,0,.95-.49.5.5,0,0,0,.17-.68A.49.49,0,0,0,11.25,21.07Z" style="fill:#fff"/></svg>