<svg xmlns="http://www.w3.org/2000/svg" viewBox="0 0 24 24"><title>Wifi-Settings</title><path d="M23.67,14.29A.48.48,0,0,0,23.4,14a.51.51,0,0,0-.4,0,.49.49,0,0,1-.62-.19.48.48,0,0,1,.14-.64.52.52,0,0,0,.2-.35.54.54,0,0,0-.12-.38,5.43,5.43,0,0,0-3-1.77.48.48,0,0,0-.4.09.52.52,0,0,0-.2.35.48.48,0,0,1-1,0,.52.52,0,0,0-.2-.35.48.48,0,0,0-.4-.09,5.48,5.48,0,0,0-3,1.77.54.54,0,0,0-.12.38.49.49,0,0,0,.2.35A.48.48,0,0,1,14,14a.51.51,0,0,0-.4,0,.48.48,0,0,0-.27.29,5.15,5.15,0,0,0,0,3.52.48.48,0,0,0,.27.29.47.47,0,0,0,.4,0,.5.5,0,0,1,.62.2.48.48,0,0,1-.14.64.49.49,0,0,0-.2.35.54.54,0,0,0,.12.38,5.48,5.48,0,0,0,3,1.77.48.48,0,0,0,.4-.09A.52.52,0,0,0,18,21a.48.48,0,0,1,1,0,.52.52,0,0,0,.2.35.47.47,0,0,0,.3.1h.1a5.48,5.48,0,0,0,3-1.77.54.54,0,0,0,.12-.38.52.52,0,0,0-.2-.35.48.48,0,0,1-.14-.64.5.5,0,0,1,.62-.2.47.47,0,0,0,.4,0,.51.51,0,0,0,.27-.29,5.15,5.15,0,0,0,0-3.52Zm-5.19,4.26a2.5,2.5,0,1,1,2.5-2.5A2.5,2.5,0,0,1,18.48,18.55Z" style="fill:#fff"/><circle cx="18.48" cy="16.05" r="1.5" style="fill:#fff"/><path d="M20.44,8.09a.5.5,0,0,1-.37-.17,12.88,12.88,0,0,0-9.59-4.37A12.85,12.85,0,0,0,.89,7.93.51.51,0,0,1,.18,8a.5.5,0,0,1,0-.71,13.88,13.88,0,0,1,10.33-4.7,13.89,13.89,0,0,1,10.33,4.7.5.5,0,0,1-.37.84Z" style="fill:#fff"/><path d="M3.09,10.92a.55.55,0,0,1-.34-.13.5.5,0,0,1,0-.71A10.29,10.29,0,0,1,17,8.92a.5.5,0,0,1-.64.78,9.19,9.19,0,0,0-12.9,1.05A.5.5,0,0,1,3.09,10.92Z" style="fill:#fff"/><path d="M5.66,13.75a.55.55,0,0,1-.34-.13.51.51,0,0,1,0-.71,7,7,0,0,1,8-1.78.5.5,0,1,1-.4.92A6,6,0,0,0,6,13.58.5.5,0,0,1,5.66,13.75Z" style="fill:#fff"/><path d="M12.34,18.13A6.51,6.51,0,0,1,12,16.05a3.88,3.88,0,0,1,0-.48l0-.16a.49.49,0,0,0-.23-.47,2.45,2.45,0,0,0-1.33-.39,2.5,2.5,0,0,0,0,5,2.46,2.46,0,0,0,1.81-.79A.64.64,0,0,0,12.34,18.13Z" style="fill:#fff"/></svg>