<svg xmlns="http://www.w3.org/2000/svg" viewBox="0 0 24 24"><title>Layers-01-yellow</title><path d="M.27,8.44l11.5,6a.47.47,0,0,0,.46,0l11.5-6A.49.49,0,0,0,24,7.78a.47.47,0,0,0-.22-.22l-11.5-6a.47.47,0,0,0-.46,0l-11.5,6a.49.49,0,0,0-.22.66A.47.47,0,0,0,.27,8.44Z" style="fill:#ffbf00"/><path d="M23.73,11.56l-1.9-1-9.14,4.77a1.47,1.47,0,0,1-1.38,0L2.17,10.56l-1.9,1a.49.49,0,0,0-.22.66.47.47,0,0,0,.22.22l11.5,6a.47.47,0,0,0,.46,0l11.5-6a.49.49,0,0,0,.22-.66A.47.47,0,0,0,23.73,11.56Z" style="fill:#ffbf00"/><path d="M23.73,15.56l-1.9-1-9.14,4.77a1.47,1.47,0,0,1-1.38,0L2.17,14.56l-1.9,1a.49.49,0,0,0-.22.66.47.47,0,0,0,.22.22l11.5,6a.47.47,0,0,0,.46,0l11.5-6a.49.49,0,0,0,.22-.66A.47.47,0,0,0,23.73,15.56Z" style="fill:#ffbf00"/></svg>