<svg xmlns="http://www.w3.org/2000/svg" viewBox="0 0 24 24"><title>Lens-1-yellow</title><path d="M12,17.5H3.07a10.51,10.51,0,0,0,8.09,5L14.32,17A5.47,5.47,0,0,1,12,17.5Z" style="fill:#ffbf00"/><path d="M7.26,14.77l0,0L2.77,7A10.36,10.36,0,0,0,1.5,12a10.46,10.46,0,0,0,1,4.5H8.85A5.48,5.48,0,0,1,7.26,14.77Z" style="fill:#ffbf00"/><path d="M12,16.5A4.5,4.5,0,1,0,7.5,12,4.51,4.51,0,0,0,12,16.5Z" style="fill:#ffbf00"/><path d="M7.23,9.28a0,0,0,0,1,0,0L11.7,1.51A10.53,10.53,0,0,0,3.36,6l3.16,5.48A5.51,5.51,0,0,1,7.23,9.28Z" style="fill:#ffbf00"/><path d="M12.84,1.54,9.68,7A5.47,5.47,0,0,1,12,6.5h8.93A10.51,10.51,0,0,0,12.84,1.54Z" style="fill:#ffbf00"/><path d="M16.77,14.72a0,0,0,0,1,0,0L12.3,22.49A10.53,10.53,0,0,0,20.64,18l-3.16-5.48A5.51,5.51,0,0,1,16.77,14.72Z" style="fill:#ffbf00"/><path d="M16.74,9.22l0,0L21.23,17a10.36,10.36,0,0,0,1.27-5,10.46,10.46,0,0,0-1-4.5H15.15A5.45,5.45,0,0,1,16.74,9.22Z" style="fill:#ffbf00"/></svg>